<?xml version="1.0" encoding="UTF-8" standalone="no"?>
<!-- Generator: Adobe Illustrator 18.0.0, SVG Export Plug-In . SVG Version: 6.00 Build 0)  -->

<svg
   xmlns:dc="http://purl.org/dc/elements/1.1/"
   xmlns:cc="http://creativecommons.org/ns#"
   xmlns:rdf="http://www.w3.org/1999/02/22-rdf-syntax-ns#"
   xmlns:svg="http://www.w3.org/2000/svg"
   xmlns="http://www.w3.org/2000/svg"
   xmlns:sodipodi="http://sodipodi.sourceforge.net/DTD/sodipodi-0.dtd"
   xmlns:inkscape="http://www.inkscape.org/namespaces/inkscape"
   version="1.1"
   id="Capa_1"
   x="0px"
   y="0px"
   viewBox="0 0 56 56"
   style="enable-background:new 0 0 56 56;"
   xml:space="preserve"
   sodipodi:docname="docx.svg"
   inkscape:version="0.92.3 (2405546, 2018-03-11)"><metadata
   id="metadata3903"><rdf:RDF><cc:Work
       rdf:about=""><dc:format>image/svg+xml</dc:format><dc:type
         rdf:resource="http://purl.org/dc/dcmitype/StillImage" /><dc:title /></cc:Work></rdf:RDF></metadata><defs
   id="defs3901" /><sodipodi:namedview
   pagecolor="#ffffff"
   bordercolor="#666666"
   borderopacity="1"
   objecttolerance="10"
   gridtolerance="10"
   guidetolerance="10"
   inkscape:pageopacity="0"
   inkscape:pageshadow="2"
   inkscape:window-width="840"
   inkscape:window-height="435"
   id="namedview3899"
   showgrid="false"
   inkscape:snap-text-baseline="false"
   inkscape:zoom="20.65762"
   inkscape:cx="36.039282"
   inkscape:cy="8.4557212"
   inkscape:window-x="385"
   inkscape:window-y="298"
   inkscape:window-maximized="0"
   inkscape:current-layer="g3866" />
<g
   id="g3866">
	<path
   style="fill:#E9E9E0;"
   d="M36.985,0H7.963C7.155,0,6.5,0.655,6.5,1.926V55c0,0.345,0.655,1,1.463,1h40.074   c0.808,0,1.463-0.655,1.463-1V12.978c0-0.696-0.093-0.92-0.257-1.085L37.607,0.257C37.442,0.093,37.218,0,36.985,0z"
   id="path3828" />
	<polygon
   style="fill:#D9D7CA;"
   points="37.5,0.151 37.5,12 49.349,12  "
   id="polygon3830" />
	<path
   style="fill:#8697CB;"
   d="M18.5,13h-6c-0.552,0-1-0.448-1-1s0.448-1,1-1h6c0.552,0,1,0.448,1,1S19.052,13,18.5,13z"
   id="path3832" />
	<path
   style="fill:#8697CB;"
   d="M21.5,18h-9c-0.552,0-1-0.448-1-1s0.448-1,1-1h9c0.552,0,1,0.448,1,1S22.052,18,21.5,18z"
   id="path3834" />
	<path
   style="fill:#8697CB;"
   d="M25.5,18c-0.26,0-0.52-0.11-0.71-0.29c-0.18-0.19-0.29-0.45-0.29-0.71c0-0.26,0.11-0.52,0.29-0.71   c0.37-0.37,1.05-0.37,1.42,0c0.18,0.19,0.29,0.45,0.29,0.71c0,0.26-0.11,0.52-0.29,0.71C26.02,17.89,25.76,18,25.5,18z"
   id="path3836" />
	<path
   style="fill:#8697CB;"
   d="M37.5,18h-8c-0.552,0-1-0.448-1-1s0.448-1,1-1h8c0.552,0,1,0.448,1,1S38.052,18,37.5,18z"
   id="path3838" />
	<path
   style="fill:#8697CB;"
   d="M12.5,33c-0.26,0-0.52-0.11-0.71-0.29c-0.18-0.19-0.29-0.45-0.29-0.71c0-0.26,0.11-0.52,0.29-0.71   c0.37-0.37,1.05-0.37,1.42,0c0.18,0.19,0.29,0.44,0.29,0.71c0,0.26-0.11,0.52-0.29,0.71C13.02,32.89,12.76,33,12.5,33z"
   id="path3840" />
	<path
   style="fill:#8697CB;"
   d="M24.5,33h-8c-0.552,0-1-0.448-1-1s0.448-1,1-1h8c0.552,0,1,0.448,1,1S25.052,33,24.5,33z"
   id="path3842" />
	<path
   style="fill:#8697CB;"
   d="M43.5,18h-2c-0.552,0-1-0.448-1-1s0.448-1,1-1h2c0.552,0,1,0.448,1,1S44.052,18,43.5,18z"
   id="path3844" />
	<path
   style="fill:#8697CB;"
   d="M34.5,23h-22c-0.552,0-1-0.448-1-1s0.448-1,1-1h22c0.552,0,1,0.448,1,1S35.052,23,34.5,23z"
   id="path3846" />
	<path
   style="fill:#8697CB;"
   d="M43.5,23h-6c-0.552,0-1-0.448-1-1s0.448-1,1-1h6c0.552,0,1,0.448,1,1S44.052,23,43.5,23z"
   id="path3848" />
	<path
   style="fill:#8697CB;"
   d="M16.5,28h-4c-0.552,0-1-0.448-1-1s0.448-1,1-1h4c0.552,0,1,0.448,1,1S17.052,28,16.5,28z"
   id="path3850" />
	<path
   style="fill:#8697CB;"
   d="M30.5,28h-10c-0.552,0-1-0.448-1-1s0.448-1,1-1h10c0.552,0,1,0.448,1,1S31.052,28,30.5,28z"
   id="path3852" />
	<path
   style="fill:#8697CB;"
   d="M43.5,28h-9c-0.552,0-1-0.448-1-1s0.448-1,1-1h9c0.552,0,1,0.448,1,1S44.052,28,43.5,28z"
   id="path3854" />
	<path
   style="fill:#0096E6;"
   d="M48.037,56H7.963C7.155,56,6.5,55.345,6.5,54.537V39h43v15.537C49.5,55.345,48.845,56,48.037,56z"
   id="path3856" />
	<g
   id="g3864"
   transform="translate(-5.8190709,0.20537897)">
		<path
   style="fill:#ffffff"
   d="m 23.5,47.682 c 0,0.829 -0.089,1.538 -0.267,2.126 -0.178,0.588 -0.403,1.08 -0.677,1.477 -0.274,0.397 -0.581,0.709 -0.923,0.937 -0.342,0.228 -0.672,0.398 -0.991,0.513 -0.319,0.114 -0.611,0.187 -0.875,0.219 C 19.503,52.984 19.307,53 19.18,53 H 15.366 V 42.924 H 18.4 c 0.848,0 1.593,0.135 2.235,0.403 0.642,0.268 1.176,0.627 1.6,1.073 0.424,0.446 0.74,0.955 0.95,1.524 0.21,0.57 0.315,1.156 0.315,1.758 z m -4.867,4.115 c 1.112,0 1.914,-0.355 2.406,-1.066 0.492,-0.711 0.738,-1.741 0.738,-3.09 0,-0.419 -0.05,-0.834 -0.15,-1.244 -0.101,-0.41 -0.294,-0.781 -0.581,-1.114 -0.287,-0.333 -0.677,-0.602 -1.169,-0.807 -0.492,-0.205 -1.13,-0.308 -1.914,-0.308 h -0.957 v 7.629 z"
   id="path3858"
   inkscape:connector-curvature="0" />
		<path
   style="fill:#ffffff"
   d="m 33.475,47.914 c 0,0.848 -0.107,1.595 -0.321,2.242 -0.214,0.647 -0.511,1.185 -0.889,1.613 -0.378,0.429 -0.82,0.752 -1.326,0.971 -0.506,0.219 -1.06,0.328 -1.661,0.328 -0.601,0 -1.155,-0.109 -1.661,-0.328 -0.506,-0.219 -0.948,-0.542 -1.326,-0.971 -0.378,-0.429 -0.675,-0.966 -0.889,-1.613 -0.214,-0.647 -0.321,-1.395 -0.321,-2.242 0,-0.847 0.107,-1.593 0.321,-2.235 0.214,-0.643 0.51,-1.178 0.889,-1.606 0.378,-0.429 0.82,-0.754 1.326,-0.978 0.506,-0.224 1.06,-0.335 1.661,-0.335 0.601,0 1.155,0.111 1.661,0.335 0.506,0.224 0.948,0.549 1.326,0.978 0.378,0.429 0.674,0.964 0.889,1.606 0.213,0.642 0.321,1.387 0.321,2.235 z m -4.239,3.815 c 0.337,0 0.658,-0.066 0.964,-0.198 0.305,-0.132 0.579,-0.349 0.82,-0.649 0.241,-0.301 0.431,-0.695 0.567,-1.183 0.136,-0.488 0.209,-1.082 0.219,-1.784 -0.009,-0.684 -0.08,-1.265 -0.212,-1.743 -0.132,-0.479 -0.314,-0.873 -0.547,-1.183 -0.233,-0.31 -0.497,-0.533 -0.793,-0.67 -0.296,-0.137 -0.608,-0.205 -0.937,-0.205 -0.337,0 -0.659,0.063 -0.964,0.191 -0.306,0.128 -0.579,0.344 -0.82,0.649 -0.242,0.306 -0.431,0.699 -0.567,1.183 -0.136,0.484 -0.21,1.075 -0.219,1.777 0.009,0.684 0.08,1.267 0.212,1.75 0.132,0.483 0.314,0.877 0.547,1.183 0.233,0.306 0.497,0.528 0.793,0.67 0.297,0.141 0.609,0.212 0.937,0.212 z"
   id="path3860"
   inkscape:connector-curvature="0" />
		<path
   style="fill:#ffffff"
   d="m 42.607,51.975 c -0.374,0.364 -0.798,0.638 -1.271,0.82 -0.474,0.183 -0.984,0.273 -1.531,0.273 -0.602,0 -1.155,-0.109 -1.661,-0.328 -0.506,-0.219 -0.948,-0.542 -1.326,-0.971 -0.378,-0.429 -0.675,-0.966 -0.889,-1.613 -0.214,-0.647 -0.321,-1.395 -0.321,-2.242 0,-0.847 0.107,-1.593 0.321,-2.235 0.214,-0.643 0.51,-1.178 0.889,-1.606 0.378,-0.429 0.822,-0.754 1.333,-0.978 0.51,-0.224 1.062,-0.335 1.654,-0.335 0.547,0 1.057,0.091 1.531,0.273 0.474,0.183 0.897,0.456 1.271,0.82 l -1.135,1.012 c -0.228,-0.265 -0.481,-0.456 -0.759,-0.574 -0.278,-0.118 -0.567,-0.178 -0.868,-0.178 -0.337,0 -0.659,0.063 -0.964,0.191 -0.306,0.128 -0.579,0.344 -0.82,0.649 -0.242,0.306 -0.431,0.699 -0.567,1.183 -0.136,0.484 -0.21,1.075 -0.219,1.777 0.009,0.684 0.08,1.267 0.212,1.75 0.132,0.483 0.314,0.877 0.547,1.183 0.233,0.306 0.497,0.528 0.793,0.67 0.296,0.142 0.608,0.212 0.937,0.212 0.329,0 0.636,-0.06 0.923,-0.178 0.287,-0.118 0.549,-0.31 0.786,-0.574 z"
   id="path3862"
   inkscape:connector-curvature="0" />
	</g>



<path
   style="fill:#ffffff"
   d="m 43.478659,48.252949 2.557,4.895 h -1.9 l -1.6,-3.801 h -0.137 l -1.723,3.801 h -1.9 l 2.557,-4.895 -2.721,-5.182 h 1.873 l 1.777,4.102 h 0.137 l 1.928,-4.102 h 1.873 z"
   id="path4851-6"
   inkscape:connector-curvature="0" /></g>
<g
   id="g3868">
</g>
<g
   id="g3870">
</g>
<g
   id="g3872">
</g>
<g
   id="g3874">
</g>
<g
   id="g3876">
</g>
<g
   id="g3878">
</g>
<g
   id="g3880">
</g>
<g
   id="g3882">
</g>
<g
   id="g3884">
</g>
<g
   id="g3886">
</g>
<g
   id="g3888">
</g>
<g
   id="g3890">
</g>
<g
   id="g3892">
</g>
<g
   id="g3894">
</g>
<g
   id="g3896">
</g>
</svg>