<?xml version="1.0" encoding="UTF-8" standalone="no"?>
<!-- Generator: Adobe Illustrator 18.0.0, SVG Export Plug-In . SVG Version: 6.00 Build 0)  -->

<svg
   xmlns:dc="http://purl.org/dc/elements/1.1/"
   xmlns:cc="http://creativecommons.org/ns#"
   xmlns:rdf="http://www.w3.org/1999/02/22-rdf-syntax-ns#"
   xmlns:svg="http://www.w3.org/2000/svg"
   xmlns="http://www.w3.org/2000/svg"
   xmlns:sodipodi="http://sodipodi.sourceforge.net/DTD/sodipodi-0.dtd"
   xmlns:inkscape="http://www.inkscape.org/namespaces/inkscape"
   version="1.1"
   id="Capa_1"
   x="0px"
   y="0px"
   viewBox="0 0 56 56"
   style="enable-background:new 0 0 56 56;"
   xml:space="preserve"
   sodipodi:docname="xlsx.svg"
   inkscape:version="0.92.3 (2405546, 2018-03-11)"><metadata
   id="metadata4898"><rdf:RDF><cc:Work
       rdf:about=""><dc:format>image/svg+xml</dc:format><dc:type
         rdf:resource="http://purl.org/dc/dcmitype/StillImage" /><dc:title></dc:title></cc:Work></rdf:RDF></metadata><defs
   id="defs4896" /><sodipodi:namedview
   pagecolor="#ffffff"
   bordercolor="#666666"
   borderopacity="1"
   objecttolerance="10"
   gridtolerance="10"
   guidetolerance="10"
   inkscape:pageopacity="0"
   inkscape:pageshadow="2"
   inkscape:window-width="1920"
   inkscape:window-height="1017"
   id="namedview4894"
   showgrid="false"
   inkscape:zoom="16.857143"
   inkscape:cx="14.826273"
   inkscape:cy="12.179385"
   inkscape:window-x="0"
   inkscape:window-y="30"
   inkscape:window-maximized="1"
   inkscape:current-layer="g4861" />
<g
   id="g4861">
	<path
   style="fill:#E9E9E0;"
   d="M36.985,0H7.963C7.155,0,6.5,0.655,6.5,1.926V55c0,0.345,0.655,1,1.463,1h40.074   c0.808,0,1.463-0.655,1.463-1V12.978c0-0.696-0.093-0.92-0.257-1.085L37.607,0.257C37.442,0.093,37.218,0,36.985,0z"
   id="path4845" />
	<polygon
   style="fill:#D9D7CA;"
   points="37.5,0.151 37.5,12 49.349,12  "
   id="polygon4847" />
	<path
   style="fill:#91CDA0;"
   d="M48.037,56H7.963C7.155,56,6.5,55.345,6.5,54.537V39h43v15.537C49.5,55.345,48.845,56,48.037,56z"
   id="path4849" />
	<g
   id="g4857"
   transform="translate(-0.05932203,-0.05932203)">
		<path
   style="fill:#ffffff"
   d="m 15.811203,48.164322 2.557,4.895 h -1.9 l -1.6,-3.801 h -0.137 l -1.723,3.801 h -1.9 l 2.557,-4.895 -2.721,-5.182 h 1.873 l 1.777,4.102 h 0.137 l 1.928,-4.102 h 1.873 z"
   id="path4851"
   inkscape:connector-curvature="0" />
		<path
   style="fill:#ffffff"
   d="m 22.469203,42.983322 v 8.832 h 4.635 v 1.244 h -6.303 v -10.076 z"
   id="path4853"
   inkscape:connector-curvature="0" />
		<path
   style="fill:#ffffff"
   d="m 34.473203,50.297322 c 0,0.364 -0.075,0.718 -0.226,1.06 -0.151,0.342 -0.362,0.642 -0.635,0.902 -0.273,0.26 -0.611,0.467 -1.012,0.622 -0.401,0.155 -0.857,0.232 -1.367,0.232 -0.219,0 -0.444,-0.012 -0.677,-0.034 -0.233,-0.022 -0.467,-0.062 -0.704,-0.116 -0.237,-0.055 -0.463,-0.13 -0.677,-0.226 -0.214,-0.096 -0.399,-0.212 -0.554,-0.349 l 0.287,-1.176 c 0.127,0.073 0.289,0.144 0.485,0.212 0.196,0.068 0.398,0.132 0.608,0.191 0.209,0.06 0.419,0.107 0.629,0.144 0.209,0.036 0.405,0.055 0.588,0.055 0.556,0 0.982,-0.13 1.278,-0.39 0.296,-0.26 0.444,-0.645 0.444,-1.155 0,-0.31 -0.105,-0.574 -0.314,-0.793 -0.21,-0.219 -0.472,-0.417 -0.786,-0.595 -0.314,-0.178 -0.654,-0.355 -1.019,-0.533 -0.365,-0.178 -0.707,-0.388 -1.025,-0.629 -0.319,-0.241 -0.583,-0.526 -0.793,-0.854 -0.21,-0.328 -0.314,-0.738 -0.314,-1.23 0,-0.446 0.082,-0.843 0.246,-1.189 0.164,-0.346 0.385,-0.641 0.663,-0.882 0.278,-0.241 0.602,-0.426 0.971,-0.554 0.369,-0.128 0.759,-0.191 1.169,-0.191 0.419,0 0.843,0.039 1.271,0.116 0.428,0.077 0.774,0.203 1.039,0.376 -0.055,0.118 -0.119,0.248 -0.191,0.39 -0.073,0.142 -0.142,0.273 -0.205,0.396 -0.064,0.123 -0.119,0.226 -0.164,0.308 -0.046,0.082 -0.073,0.128 -0.082,0.137 -0.055,-0.027 -0.116,-0.063 -0.185,-0.109 -0.069,-0.046 -0.167,-0.091 -0.294,-0.137 -0.128,-0.046 -0.296,-0.077 -0.506,-0.096 -0.21,-0.019 -0.479,-0.014 -0.807,0.014 -0.183,0.019 -0.355,0.07 -0.52,0.157 -0.165,0.087 -0.31,0.193 -0.438,0.321 -0.128,0.128 -0.228,0.271 -0.301,0.431 -0.073,0.159 -0.109,0.313 -0.109,0.458 0,0.364 0.104,0.658 0.314,0.882 0.209,0.224 0.469,0.419 0.779,0.588 0.31,0.169 0.647,0.333 1.012,0.492 0.364,0.159 0.704,0.354 1.019,0.581 0.315,0.227 0.576,0.513 0.786,0.854 0.212,0.342 0.317,0.781 0.317,1.319 z"
   id="path4855"
   inkscape:connector-curvature="0" />
	<path
   style="fill:#ffffff"
   d="m 41.174695,48.135025 2.557,4.895 h -1.9 l -1.6,-3.801 h -0.137 l -1.723,3.801 h -1.9 l 2.557,-4.895 -2.721,-5.182 h 1.873 l 1.777,4.102 h 0.137 l 1.928,-4.102 h 1.873 z"
   id="path4851-6"
   inkscape:connector-curvature="0" /></g>
	<path
   style="fill:#C8BDB8;"
   d="M23.5,16v-4h-12v4v2v2v2v2v2v2v2v4h10h2h21v-4v-2v-2v-2v-2v-2v-4H23.5z M13.5,14h8v2h-8V14z    M13.5,18h8v2h-8V18z M13.5,22h8v2h-8V22z M13.5,26h8v2h-8V26z M21.5,32h-8v-2h8V32z M42.5,32h-19v-2h19V32z M42.5,28h-19v-2h19V28   z M42.5,24h-19v-2h19V24z M23.5,20v-2h19v2H23.5z"
   id="path4859" />
</g>
<g
   id="g4863">
</g>
<g
   id="g4865">
</g>
<g
   id="g4867">
</g>
<g
   id="g4869">
</g>
<g
   id="g4871">
</g>
<g
   id="g4873">
</g>
<g
   id="g4875">
</g>
<g
   id="g4877">
</g>
<g
   id="g4879">
</g>
<g
   id="g4881">
</g>
<g
   id="g4883">
</g>
<g
   id="g4885">
</g>
<g
   id="g4887">
</g>
<g
   id="g4889">
</g>
<g
   id="g4891">
</g>
</svg>