<svg width="218" height="218" viewBox="0 0 218 218" fill="none" xmlns="http://www.w3.org/2000/svg">
<path d="M200.692 133.282L215.81 112.455C217.473 110.156 217.49 107.049 215.813 104.738L200.71 83.9251L203.385 58.3237C203.681 55.4954 202.119 52.8077 199.521 51.6497L176.012 41.1657L165.555 17.6706C164.405 15.0662 161.642 13.5107 158.883 13.8177L133.271 16.5067L112.445 1.38802C110.136 -0.29032 107.048 -0.275418 104.74 1.38894L83.9238 16.5043L58.3225 13.8292C55.5068 13.5367 52.8064 15.0958 51.6519 17.6805L41.1678 41.1895L17.6693 51.6595C15.0776 52.8129 13.5265 55.5087 13.8164 58.331L16.4962 83.9269L1.37748 104.754C-0.297466 107.05 -0.289357 110.163 1.3784 112.458L16.4971 133.262L13.8221 158.863C13.5262 161.692 15.0726 164.389 17.6699 165.546L41.1789 176.031L51.6523 199.516C52.8116 202.137 55.5108 203.675 58.3365 203.373L83.9164 200.702L104.743 215.821C105.404 216.297 106.127 216.64 106.9 216.847C108.764 217.347 110.823 217.015 112.463 215.811L133.264 200.705L158.865 203.38C161.694 203.676 164.394 202.117 165.552 199.519L176.036 176.01L199.519 165.549C202.126 164.387 203.661 161.7 203.371 158.878L200.692 133.282Z" fill="#F7981D"/>
</svg>
