<svg width="197" height="197" viewBox="0 0 197 197" fill="none" xmlns="http://www.w3.org/2000/svg">
<path d="M181.674 120.684L195.352 101.84C196.856 99.7601 196.872 96.9491 195.355 94.8584L181.69 76.0274L184.111 52.8643C184.378 50.3053 182.965 47.8736 180.615 46.8259L159.345 37.3404L149.883 16.0829C148.843 13.7265 146.343 12.3192 143.847 12.5969L120.674 15.0298L101.831 1.35104C99.7423 -0.167464 96.9482 -0.153982 94.8605 1.35187L76.0265 15.0276L52.8633 12.6074C50.3158 12.3427 47.8726 13.7533 46.828 16.0918L37.3425 37.3619L16.0819 46.8347C13.7371 47.8783 12.3336 50.3174 12.596 52.8708L15.0205 76.0291L1.34169 94.8725C-0.173738 96.9496 -0.166399 99.7667 1.34253 101.843L15.0214 120.665L12.6011 143.829C12.3334 146.388 13.7325 148.828 16.0825 149.875L37.3525 159.361L46.8285 180.61C47.8773 182.981 50.3195 184.373 52.876 184.099L76.0197 181.683L94.8631 195.362C95.4607 195.792 96.1151 196.103 96.8148 196.29C98.5008 196.742 100.364 196.442 101.848 195.352L120.668 181.685L143.831 184.105C146.39 184.373 148.833 182.963 149.881 180.613L159.366 159.342L180.612 149.878C182.972 148.826 184.36 146.395 184.098 143.842L181.674 120.684Z" fill="#EAE833"/>
</svg>
