<svg width="200" height="200" viewBox="0 0 200 200" fill="none" xmlns="http://www.w3.org/2000/svg">
    <rect width="200" height="200" fill="#C8C8C8"/>
    <path d="M79.1665 139.76L58.2801 151.153C57.0544 151.821 55.9529 152.642 54.928 153.538C67.1053 163.805 82.825 170 100 170C117.048 170 132.668 163.898 144.811 153.77C143.691 152.825 142.476 151.974 141.128 151.303L118.763 140.122C115.873 138.677 114.048 135.724 114.048 132.493V123.718C114.676 123.002 115.395 122.083 116.163 120.997C119.212 116.692 121.518 111.955 123.116 106.987C125.985 106.102 128.098 103.452 128.098 100.304V90.9368C128.098 88.8764 127.181 87.0353 125.757 85.7462V72.2059C125.757 72.2059 128.539 51.1346 100.003 51.1346C71.4665 51.1346 74.248 72.2059 74.248 72.2059V85.7462C72.8216 87.0353 71.9076 88.8764 71.9076 90.9368V100.304C71.9076 102.771 73.2046 104.942 75.1461 106.197C77.4865 116.385 83.6148 123.718 83.6148 123.718V132.276C83.6121 135.393 81.9057 138.265 79.1665 139.76Z"
          fill="#E7ECED"/>
    <path d="M101.196 30.0105C62.5433 29.3501 30.6708 60.1501 30.0104 98.8033C29.6353 120.72 39.4036 140.418 54.9568 153.517C55.9738 152.629 57.0648 151.816 58.2772 151.155L79.1636 139.763C81.9029 138.268 83.6093 135.396 83.6093 132.274V123.715C83.6093 123.715 77.4783 116.383 75.1406 106.194C73.2017 104.94 71.9021 102.771 71.9021 100.301V90.9343C71.9021 88.8739 72.8187 87.0328 74.2425 85.7437V72.2033C74.2425 72.2033 71.461 51.132 99.9972 51.132C128.533 51.132 125.752 72.2033 125.752 72.2033V85.7437C127.178 87.0328 128.092 88.8739 128.092 90.9343V100.301C128.092 103.45 125.979 106.099 123.11 106.984C121.512 111.953 119.206 116.689 116.158 120.995C115.389 122.08 114.671 123 114.042 123.715V132.491C114.042 135.721 115.867 138.677 118.757 140.119L141.123 151.301C142.465 151.972 143.677 152.82 144.795 153.763C159.878 141.184 169.622 122.376 169.984 101.197C170.65 62.5433 139.852 30.6709 101.196 30.0105Z"
          fill="#C8C8C8"/>
</svg>
