<svg width="582" height="40" viewBox="0 0 582 40" fill="none" xmlns="http://www.w3.org/2000/svg">
<path d="M35.9103 39.337L35.8539 16.1326L24.2409 35.2486H20.1256L8.56887 16.6298V39.337H0V0.662982H7.55413L22.3242 24.6961L36.8687 0.662982H44.3664L44.4792 39.337H35.9103Z" fill="white"/>
<path d="M80.9576 31.0497H62.6361L59.1409 39.337H49.7828L67.3715 0.662982H76.3913L94.0364 39.337H84.4528L80.9576 31.0497ZM78.0826 24.2541L71.825 9.44751L65.5675 24.2541H78.0826Z" fill="white"/>
<path d="M112.224 40C109.105 40 106.079 39.5948 103.148 38.7845C100.254 37.9374 97.9239 36.8508 96.1575 35.5249L99.2581 28.7845C100.949 30 102.96 30.9761 105.29 31.7127C107.62 32.4494 109.95 32.8177 112.281 32.8177C114.874 32.8177 116.79 32.4494 118.031 31.7127C119.271 30.9392 119.891 29.9263 119.891 28.674C119.891 27.7532 119.515 26.9982 118.764 26.4088C118.049 25.7827 117.11 25.2854 115.945 24.9171C114.817 24.5488 113.276 24.1436 111.322 23.7017C108.316 23.0018 105.854 22.302 103.937 21.6022C102.02 20.9024 100.367 19.779 98.9762 18.232C97.6232 16.6851 96.9468 14.6225 96.9468 12.0442C96.9468 9.79742 97.5669 7.77164 98.8071 5.96685C100.047 4.12523 101.908 2.67035 104.388 1.60221C106.906 0.534071 109.969 0 113.577 0C116.095 0 118.557 0.29466 120.962 0.883977C123.367 1.4733 125.472 2.32044 127.276 3.42541L124.457 10.221C120.812 8.19521 117.166 7.18232 113.521 7.18232C110.965 7.18232 109.067 7.58748 107.827 8.39779C106.624 9.2081 106.023 10.2762 106.023 11.6022C106.023 12.9282 106.718 13.9227 108.109 14.5856C109.537 15.2118 111.698 15.8379 114.592 16.4641C117.598 17.1639 120.06 17.8637 121.977 18.5635C123.894 19.2634 125.528 20.3683 126.881 21.8785C128.272 23.3886 128.967 25.4328 128.967 28.011C128.967 30.221 128.328 32.2468 127.051 34.0884C125.81 35.8932 123.931 37.3297 121.413 38.3978C118.895 39.4659 115.832 40 112.224 40Z" fill="white"/>
<path d="M143.959 7.9558H131.331V0.662982H165.719V7.9558H153.091V39.337H143.959V7.9558Z" fill="white"/>
<path d="M202.315 32.1547V39.337H171.761V0.662982H201.582V7.8453H180.837V16.2431H199.158V23.2044H180.837V32.1547H202.315Z" fill="white"/>
<path d="M235.852 39.337L228.242 28.5635H227.791H219.842V39.337H210.709V0.662982H227.791C231.286 0.662982 234.311 1.23389 236.867 2.37569C239.46 3.5175 241.452 5.13812 242.843 7.23757C244.233 9.33702 244.928 11.8232 244.928 14.6961C244.928 17.5691 244.214 20.0552 242.786 22.1547C241.396 24.2173 239.404 25.8011 236.811 26.9061L245.661 39.337H235.852ZM235.683 14.6961C235.683 12.523 234.969 10.8656 233.541 9.72376C232.113 8.54512 230.027 7.9558 227.283 7.9558H219.842V21.4365H227.283C230.027 21.4365 232.113 20.8471 233.541 19.6685C234.969 18.4899 235.683 16.8324 235.683 14.6961Z" fill="white"/>
<path d="M289.484 0.662982V39.337H280.351V23.4807H262.424V39.337H253.292V0.662982H262.424V15.9116H280.351V0.662982H289.484Z" fill="white"/>
<path d="M325.936 31.0497H307.615L304.119 39.337H294.761L312.35 0.662982H321.37L339.015 39.337H329.431L325.936 31.0497ZM323.061 24.2541L316.804 9.44751L310.546 24.2541H323.061Z" fill="white"/>
<path d="M380.429 0.662982V39.337H372.931L353.257 15.8564V39.337H344.237V0.662982H351.791L371.409 24.1436V0.662982H380.429Z" fill="white"/>
<path d="M390.893 0.662982H408.82C413.104 0.662982 416.881 1.4733 420.151 3.09392C423.458 4.67772 426.014 6.92449 427.818 9.83425C429.66 12.744 430.58 16.1326 430.58 20C430.58 23.8674 429.66 27.256 427.818 30.1657C426.014 33.0755 423.458 35.3407 420.151 36.9613C416.881 38.5451 413.104 39.337 408.82 39.337H390.893V0.662982ZM408.369 31.9889C412.315 31.9889 415.453 30.9208 417.783 28.7845C420.151 26.6114 421.335 23.6832 421.335 20C421.335 16.3168 420.151 13.407 417.783 11.2707C415.453 9.0976 412.315 8.01105 408.369 8.01105H400.026V31.9889H408.369Z" fill="white"/>
<path d="M473.308 0.662982C476.823 0.662982 479.866 1.23389 482.437 2.37569C485.045 3.5175 487.048 5.13812 488.447 7.23757C489.845 9.33702 490.545 11.8232 490.545 14.6961C490.545 17.5322 489.845 20.0184 488.447 22.1547C487.048 24.2541 485.045 25.8748 482.437 27.0166C479.866 28.1215 476.823 28.674 473.308 28.674H465.314V39.337H456.128V0.662982H473.308ZM472.798 21.3812C475.557 21.3812 477.655 20.8103 479.091 19.6685C480.528 18.4899 481.246 16.8324 481.246 14.6961C481.246 12.523 480.528 10.8656 479.091 9.72376C477.655 8.54512 475.557 7.9558 472.798 7.9558H465.314V21.3812H472.798Z" fill="black"/>
<path d="M523.524 39.337L515.869 28.5635H515.416H507.421V39.337H498.236V0.662982H515.416C518.931 0.662982 521.974 1.23389 524.544 2.37569C527.152 3.5175 529.156 5.13812 530.554 7.23757C531.953 9.33702 532.652 11.8232 532.652 14.6961C532.652 17.5691 531.934 20.0552 530.498 22.1547C529.099 24.2173 527.096 25.8011 524.488 26.9061L533.389 39.337H523.524ZM523.354 14.6961C523.354 12.523 522.635 10.8656 521.199 9.72376C519.763 8.54512 517.665 7.9558 514.905 7.9558H507.421V21.4365H514.905C517.665 21.4365 519.763 20.8471 521.199 19.6685C522.635 18.4899 523.354 16.8324 523.354 14.6961Z" fill="black"/>
<path d="M560.284 40C556.164 40 552.441 39.1344 549.115 37.4033C545.826 35.6722 543.237 33.2965 541.347 30.2762C539.495 27.2192 538.569 23.7937 538.569 20C538.569 16.2063 539.495 12.7993 541.347 9.77901C543.237 6.72192 545.826 4.32781 549.115 2.59668C552.441 0.865562 556.164 0 560.284 0C564.404 0 568.109 0.865562 571.397 2.59668C574.686 4.32781 577.275 6.72192 579.165 9.77901C581.055 12.7993 582 16.2063 582 20C582 23.7937 581.055 27.2192 579.165 30.2762C577.275 33.2965 574.686 35.6722 571.397 37.4033C568.109 39.1344 564.404 40 560.284 40ZM560.284 32.3757C562.628 32.3757 564.745 31.86 566.635 30.8287C568.525 29.7606 569.999 28.2873 571.057 26.4088C572.153 24.5304 572.701 22.3941 572.701 20C572.701 17.6059 572.153 15.4696 571.057 13.5912C569.999 11.7127 568.525 10.2578 566.635 9.22652C564.745 8.15838 562.628 7.62431 560.284 7.62431C557.941 7.62431 555.824 8.15838 553.934 9.22652C552.044 10.2578 550.551 11.7127 549.455 13.5912C548.397 15.4696 547.867 17.6059 547.867 20C547.867 22.3941 548.397 24.5304 549.455 26.4088C550.551 28.2873 552.044 29.7606 553.934 30.8287C555.824 31.86 557.941 32.3757 560.284 32.3757Z" fill="black"/>
</svg>
