<svg width="20" height="20" viewBox="0 0 20 20" fill="none" xmlns="http://www.w3.org/2000/svg">
    <path d="M19.1376 13.5968C19.5475 13.074 19.7441 12.5136 19.719 11.9364C19.6939 11.3007 19.4095 10.803 19.1753 10.4977C19.4471 9.82016 19.5517 8.75366 18.6441 7.92555C17.9791 7.31911 16.8499 7.04726 15.2857 7.12254C14.1857 7.17273 13.2656 7.37767 13.228 7.38603H13.2238C13.0147 7.42367 12.793 7.46968 12.5672 7.51987C12.5504 7.2522 12.5964 6.5872 13.09 5.08992C13.6755 3.30824 13.642 1.94479 12.9812 1.03304C12.2869 0.0752824 11.1786 0 10.8524 0C10.5387 0 10.2501 0.129653 10.0452 0.368047C9.58096 0.90757 9.63533 1.90297 9.69388 2.36303C9.14181 3.84358 7.59434 7.47386 6.28527 8.48181C6.26017 8.49854 6.23926 8.51945 6.21835 8.54036C5.83357 8.94605 5.57427 9.38519 5.39861 9.76997C5.15185 9.63614 4.87163 9.56085 4.5705 9.56085H2.01927C1.05733 9.56085 0.279411 10.343 0.279411 11.3007V18.097C0.279411 19.059 1.06151 19.8369 2.01927 19.8369H4.5705C4.94273 19.8369 5.28987 19.7198 5.57427 19.519L6.55712 19.6361C6.70768 19.657 9.38439 19.9958 12.1322 19.9414C12.6299 19.9791 13.0983 20 13.5333 20C14.2819 20 14.9344 19.9414 15.4781 19.8243C16.7579 19.5525 17.632 19.0088 18.0753 18.21C18.4141 17.5993 18.4141 16.9929 18.3597 16.6081C19.192 15.8553 19.3384 15.023 19.3091 14.4375C19.2924 14.0987 19.2171 13.8101 19.1376 13.5968ZM2.01927 18.7077C1.6805 18.7077 1.40865 18.4316 1.40865 18.097V11.2965C1.40865 10.9578 1.68468 10.6859 2.01927 10.6859H4.5705C4.90927 10.6859 5.18113 10.9619 5.18113 11.2965V18.0928C5.18113 18.4316 4.90509 18.7035 4.5705 18.7035H2.01927V18.7077ZM18.0669 13.1075C17.8913 13.2915 17.8578 13.5717 17.9917 13.7892C17.9917 13.7934 18.1631 14.0862 18.1841 14.4877C18.2133 15.0355 17.9498 15.5207 17.3978 15.9348C17.2012 16.0853 17.1217 16.3446 17.2054 16.5788C17.2054 16.583 17.3852 17.1351 17.0925 17.6579C16.8122 18.1598 16.1891 18.5194 15.2439 18.7202C14.4869 18.8833 13.458 18.9126 12.1949 18.8122C12.1782 18.8122 12.1573 18.8122 12.1364 18.8122C9.44712 18.8708 6.7286 18.5194 6.69932 18.5153H6.69514L6.27272 18.4651C6.29781 18.348 6.31036 18.2225 6.31036 18.097V11.2965C6.31036 11.1167 6.28108 10.941 6.2309 10.7779C6.30618 10.4977 6.5153 9.87453 7.00881 9.34337C8.88669 7.85445 10.7227 2.83145 10.8022 2.61397C10.8357 2.52614 10.844 2.42995 10.8273 2.33375C10.7562 1.86533 10.7813 1.29235 10.8817 1.12087C11.1033 1.12505 11.7014 1.18779 12.0611 1.68549C12.4877 2.2752 12.471 3.32915 12.0109 4.72606C11.3083 6.85487 11.2497 7.97574 11.806 8.46926C12.082 8.71602 12.4501 8.72857 12.7177 8.63237C12.9728 8.57382 13.2154 8.52363 13.4455 8.48599C13.4622 8.48181 13.4831 8.47762 13.4998 8.47344C14.7838 8.19322 17.0841 8.02175 17.8829 8.74948C18.5605 9.36846 18.0795 10.1882 18.0251 10.276C17.8704 10.5102 17.9164 10.8156 18.1255 11.0038C18.1297 11.0079 18.5688 11.422 18.5897 11.9783C18.6065 12.3505 18.4308 12.7311 18.0669 13.1075Z"
          fill="#878787"/>
</svg>
