<?xml version="1.0" encoding="utf-8"?>
<!-- Generator: Adobe Illustrator 22.0.1, SVG Export Plug-In . SVG Version: 6.00 Build 0)  -->
<svg version="1.1" id="Layer_1" xmlns="http://www.w3.org/2000/svg"  x="0px" y="0px"
	 viewBox="0 0 313.1 51.6" style="enable-background:new 0 0 313.1 51.6;" xml:space="preserve">
<style type="text/css">
	.st0{fill:#11CA79;}
	.st1{fill:#3474FF;}
</style>
<g>
	<g>
		<path class="st0" d="M246.8,32.5c0,9.9-6.9,16.5-17,16.5c-10.2,0-17.1-6.7-17.1-16.5c0-9.8,6.9-16.4,17.1-16.4
			C239.9,16.1,246.8,22.7,246.8,32.5z M220.6,32.6c0,5.8,3.7,9.8,9.2,9.8c5.3,0,9.1-4,9.1-9.8c0-5.8-3.7-9.8-9.1-9.8
			C224.3,22.9,220.6,26.8,220.6,32.6z"/>
		<path class="st0" d="M282.3,16.4v32.4h-7.9v-6c-2.2,4.3-6.1,6.3-11.2,6.3c-7.3,0-11.7-4.8-11.7-12.4V16.4h7.9v18
			c0,4.5,2.6,7.3,7,7.3c5.1-0.1,8.1-4.1,8.1-9.3v-16H282.3z"/>
		<path class="st0" d="M311,46.7c-2.5,1.5-5.3,2.4-8.1,2.4c-5.3,0-9.5-3-9.5-9.7v-16h-4.5l-0.1-5.7h4.6V8.8h7.8v8.9h9.3v5.7h-9.3V38
			c0,3.1,1.3,4.1,3.4,4.1c1.3,0,2.8-0.5,4.6-1.3L311,46.7z"/>
	</g>
	<g>
		<g>
			<polygon class="st1" points="212.7,48.9 182.5,18.8 182.5,29.9 201.5,48.9 			"/>
		</g>
		<g>
			<rect x="182.5" y="3.7" class="st1" width="7.9" height="45.2"/>
		</g>
		<g>
			<polygon class="st0" points="201.1,16 190.4,26.7 182.5,18.8 182.5,29.9 184.8,32.2 184.8,32.2 190.4,37.8 212.2,16 			"/>
		</g>
	</g>
	<g>
		<g>
			<g>
				<g>
					<path class="st1" d="M31.3,48.7H1v-5.8l14.3-15.4c2.1-2.4,3.5-4.4,4.4-6c0.9-1.6,1.3-3.1,1.3-4.5c0-1.9-0.5-3.4-1.5-4.6
						c-1-1.2-2.4-1.8-4.3-1.8c-2,0-3.6,0.7-4.7,2.1C9.6,14.1,9,16,9,18.3H0.4l-0.1-0.2c-0.1-4,1.2-7.4,3.9-10.1
						c2.7-2.8,6.4-4.2,11-4.2c4.6,0,8.1,1.2,10.8,3.6c2.6,2.4,3.9,5.5,3.9,9.5c0,2.7-0.7,5.1-2.2,7.4c-1.5,2.3-3.9,5.2-7.3,8.9
						l-7.9,8.6l0.1,0.2h18.6V48.7z"/>
					<path class="st1" d="M52.4,23c-5.2,0-8.8,3.9-8.8,9.6c0,5.8,3.6,9.7,8.8,9.7c3.7,0,6.8-1.3,8.7-3.8l4.9,4.1
						c-2.8,4.1-7.7,6.5-14,6.5c-9.7,0-16.3-6.7-16.3-16.4c0-9.9,6.7-16.5,16.4-16.5c5.9,0,10.6,2.2,13.5,5.9l-4.8,4.5
						C58.9,24.4,56,23,52.4,23z"/>
					<path class="st1" d="M104.6,28.5v20.2h-7.9V30.8c0-4.5-2.7-7.3-7.2-7.3c-5.3,0.1-8.5,4-8.5,9.3v15.9h-7.9V3.9h7.9v18.7
						c2.3-4.4,6.3-6.4,11.7-6.5C100,16.1,104.6,20.9,104.6,28.5z"/>
					<path class="st1" d="M142.4,35.3h-23.9c1,4.6,4.5,7.4,9.3,7.4c3.3,0,6.4-1.3,8.7-3.6l4.2,4.4c-3.2,3.5-7.9,5.6-13.6,5.6
						c-10,0-16.6-6.7-16.6-16.4c0-9.9,6.8-16.5,16.4-16.5C138.2,16.1,143.1,23.6,142.4,35.3z M135.2,30c-0.2-4.8-3.4-7.8-8.3-7.8
						c-4.7,0-7.9,3-8.6,7.8H135.2z"/>
					<path class="st1" d="M163,23c-5.2,0-8.8,3.9-8.8,9.6c0,5.8,3.6,9.7,8.8,9.7c3.7,0,6.8-1.3,8.7-3.8l4.9,4.1
						c-2.8,4.1-7.7,6.5-14,6.5c-9.7,0-16.3-6.7-16.3-16.4c0-9.9,6.7-16.5,16.4-16.5c5.9,0,10.6,2.2,13.5,5.9l-4.8,4.5
						C169.4,24.4,166.5,23,163,23z"/>
				</g>
			</g>
		</g>
	</g>
</g>
</svg>
