<svg width="20" height="20" viewBox="0 0 20 20" fill="none" xmlns="http://www.w3.org/2000/svg">
    <g clip-path="url(#clip0)">
        <path d="M0.0783672 18.1116L1.45137 14.1158C0.790983 12.7809 0.441727 11.2929 0.439383 9.79576C0.435398 7.21756 1.43294 4.77972 3.24832 2.93144C5.06398 1.08281 7.48347 0.042263 10.061 0.00136466C11.4114 -0.020315 12.7218 0.228513 13.9578 0.740113C15.1498 1.23359 16.2188 1.94839 17.1351 2.86464C18.0514 3.78089 18.7662 4.84991 19.2596 6.04198C19.7712 7.27791 20.0198 8.58897 19.9984 9.93873C19.9576 12.5163 18.917 14.9358 17.0684 16.7515C15.2237 18.5633 12.7921 19.5605 10.2195 19.5605C10.2144 19.5605 10.2091 19.5605 10.2041 19.5605C8.70691 19.5581 7.21898 19.2089 5.88402 18.5485L1.88821 19.9215C1.73454 19.9743 1.57704 20 1.42126 20C1.05118 20 0.691179 19.8546 0.418211 19.5816C0.0303612 19.1938 -0.0999126 18.6305 0.0783672 18.1116ZM1.25669 18.7432C1.29602 18.7825 1.38024 18.8422 1.50294 18.8001L5.73707 17.3452C5.79969 17.3237 5.8648 17.313 5.92972 17.313C6.02543 17.313 6.1207 17.3361 6.20699 17.3818C7.4307 18.0292 8.81351 18.3725 10.206 18.3747C14.8759 18.3822 18.7388 14.5891 18.8128 9.91994C18.8501 7.57077 17.9565 5.36292 16.2967 3.70312C14.6369 2.04335 12.4297 1.14992 10.0798 1.18707C5.4107 1.26109 1.61794 5.12214 1.6252 9.79393C1.62739 11.1864 1.97071 12.5692 2.61805 13.7929C2.69469 13.9377 2.70793 14.1078 2.65469 14.2628L1.19977 18.4969C1.15762 18.6195 1.21731 18.7039 1.25669 18.7432Z"
              fill="#878787"/>
        <path d="M10.316 14.1699C10.6262 14.1699 10.9233 14.4426 10.9089 14.7628C10.8946 15.084 10.6484 15.3556 10.316 15.3556C10.0059 15.3556 9.70882 15.0829 9.72315 14.7628C9.73753 14.4415 9.98366 14.1699 10.316 14.1699Z"
              fill="#878787"/>
        <path d="M10.3159 4.98737C8.68938 4.98737 7.3661 6.31064 7.3661 7.93716C7.3661 8.26459 7.63156 8.53005 7.95899 8.53005C8.28641 8.53005 8.55188 8.26459 8.55188 7.93716C8.55188 6.96451 9.34324 6.17314 10.3159 6.17314C11.2886 6.17314 12.0799 6.96451 12.0799 7.93716C12.0799 8.90982 11.2886 9.70118 10.3159 9.70118C9.98848 9.70118 9.72301 9.96665 9.72301 10.2941V12.7122C9.72301 13.0397 9.98848 13.3051 10.3159 13.3051C10.6433 13.3051 10.9088 13.0397 10.9088 12.7122V10.8271C12.2521 10.5519 13.2657 9.36068 13.2657 7.93716C13.2657 6.31064 11.9424 4.98737 10.3159 4.98737Z"
              fill="#878787"/>
    </g>
    <defs>
        <clipPath id="clip0">
            <rect width="20" height="20" transform="matrix(-1 0 0 1 20 0)" fill="white"/>
        </clipPath>
    </defs>
</svg>
