<svg width="524" height="36" viewBox="0 0 524 36" fill="none" xmlns="http://www.w3.org/2000/svg">
<path d="M32.3316 35.4033L32.2808 14.5193L21.8251 31.7238H18.1199L7.71491 14.9669L7.71491 35.4033H0L0 0.596684L6.80131 0.596684L20.0994 22.2265L33.1944 0.596684L39.945 0.596684L40.0465 35.4033H32.3316Z" fill="white"/>
<path d="M72.8896 27.9448H56.3939L53.247 35.4033H44.8215L60.6574 0.596684L68.7784 0.596684L84.665 35.4033H76.0365L72.8896 27.9448ZM70.301 21.8287L64.6671 8.50276L59.0332 21.8287H70.301Z" fill="white"/>
<path d="M101.04 36C98.2317 36 95.5078 35.6354 92.8684 34.9061C90.263 34.1436 88.165 33.1657 86.5747 31.9724L89.3663 25.9061C90.889 27 92.6992 27.8785 94.7972 28.5414C96.8951 29.2044 98.993 29.5359 101.091 29.5359C103.426 29.5359 105.151 29.2044 106.268 28.5414C107.385 27.8453 107.943 26.9337 107.943 25.8066C107.943 24.9779 107.605 24.2983 106.928 23.768C106.285 23.2044 105.439 22.7569 104.39 22.4254C103.375 22.0939 101.988 21.7293 100.228 21.3315C97.5211 20.7017 95.3047 20.0718 93.579 19.442C91.8533 18.8122 90.3645 17.8011 89.1125 16.4088C87.8943 15.0166 87.2853 13.1602 87.2853 10.8398C87.2853 8.81768 87.8436 6.99448 88.9602 5.37017C90.0769 3.71271 91.7518 2.40331 93.9851 1.44199C96.2522 0.480664 99.0099 0 102.258 0C104.525 0 106.742 0.265194 108.907 0.79558C111.073 1.32597 112.968 2.0884 114.592 3.08287L112.054 9.1989C108.772 7.37569 105.49 6.46409 102.208 6.46409C99.9066 6.46409 98.1978 6.82873 97.0812 7.55801C95.9984 8.28729 95.457 9.24862 95.457 10.442C95.457 11.6354 96.083 12.5304 97.335 13.1271C98.6208 13.6906 100.566 14.2541 103.172 14.8177C105.879 15.4475 108.095 16.0773 109.821 16.7072C111.547 17.337 113.019 18.3315 114.237 19.6906C115.489 21.0497 116.115 22.8895 116.115 25.2099C116.115 27.1989 115.539 29.0221 114.389 30.6796C113.272 32.3039 111.58 33.5967 109.313 34.558C107.046 35.5193 104.289 36 101.04 36Z" fill="white"/>
<path d="M129.612 7.16022L118.243 7.16022V0.596684L149.204 0.596684V7.16022L137.835 7.16022V35.4033H129.612V7.16022Z" fill="white"/>
<path d="M182.153 28.9392V35.4033L154.643 35.4033V0.596684L181.493 0.596684V7.06077L162.815 7.06077V14.6188L179.311 14.6188V20.884L162.815 20.884V28.9392L182.153 28.9392Z" fill="white"/>
<path d="M212.348 35.4033L205.496 25.7072H205.09H197.933V35.4033H189.711V0.596684L205.09 0.596684C208.236 0.596684 210.96 1.1105 213.261 2.13812C215.596 3.16575 217.389 4.62431 218.641 6.51381C219.893 8.40331 220.519 10.6409 220.519 13.2265C220.519 15.8122 219.877 18.0497 218.591 19.9392C217.339 21.7956 215.545 23.221 213.211 24.2155L221.179 35.4033H212.348ZM212.195 13.2265C212.195 11.2707 211.553 9.77901 210.267 8.75138C208.981 7.69061 207.103 7.16022 204.633 7.16022L197.933 7.16022V19.2928H204.633C207.103 19.2928 208.981 18.7624 210.267 17.7017C211.553 16.6409 212.195 15.1492 212.195 13.2265Z" fill="white"/>
<path d="M260.634 0.596684V35.4033H252.412V21.1326H236.272V35.4033H228.049V0.596684L236.272 0.596684V14.3204L252.412 14.3204V0.596684L260.634 0.596684Z" fill="white"/>
<path d="M293.454 27.9448H276.959L273.812 35.4033H265.386L281.222 0.596684L289.343 0.596684L305.23 35.4033H296.601L293.454 27.9448ZM290.866 21.8287L285.232 8.50276L279.598 21.8287H290.866Z" fill="white"/>
<path d="M342.516 0.596684V35.4033H335.766L318.052 14.2707V35.4033H309.931V0.596684L316.732 0.596684L334.395 21.7293V0.596684L342.516 0.596684Z" fill="white"/>
<path d="M351.937 0.596684L368.078 0.596684C371.935 0.596684 375.336 1.32597 378.28 2.78453C381.258 4.20994 383.558 6.23204 385.183 8.85083C386.841 11.4696 387.67 14.5193 387.67 18C387.67 21.4807 386.841 24.5304 385.183 27.1492C383.558 29.768 381.258 31.8066 378.28 33.2652C375.336 34.6906 371.935 35.4033 368.078 35.4033H351.937V0.596684ZM367.672 28.7901C371.225 28.7901 374.05 27.8287 376.148 25.9061C378.28 23.9503 379.346 21.3149 379.346 18C379.346 14.6851 378.28 12.0663 376.148 10.1436C374.05 8.18784 371.225 7.20994 367.672 7.20994L360.16 7.20994V28.7901L367.672 28.7901Z" fill="white"/>
<path d="M426.14 0.596684C429.305 0.596684 432.045 1.1105 434.359 2.13812C436.707 3.16575 438.511 4.62431 439.77 6.51381C441.029 8.40331 441.659 10.6409 441.659 13.2265C441.659 15.779 441.029 18.0166 439.77 19.9392C438.511 21.8287 436.707 23.2873 434.359 24.3149C432.045 25.3094 429.305 25.8066 426.14 25.8066L418.943 25.8066V35.4033H410.673V0.596684L426.14 0.596684ZM425.681 19.2431C428.165 19.2431 430.054 18.7293 431.347 17.7017C432.64 16.6409 433.287 15.1492 433.287 13.2265C433.287 11.2707 432.64 9.77901 431.347 8.75138C430.054 7.69061 428.165 7.16022 425.681 7.16022L418.943 7.16022V19.2431L425.681 19.2431Z" fill="black"/>
<path d="M471.352 35.4033L464.46 25.7072H464.052H456.854V35.4033H448.584V0.596684L464.052 0.596684C467.217 0.596684 469.956 1.1105 472.27 2.13812C474.619 3.16575 476.422 4.62431 477.681 6.51381C478.941 8.40331 479.57 10.6409 479.57 13.2265C479.57 15.8122 478.924 18.0497 477.63 19.9392C476.371 21.7956 474.568 23.221 472.219 24.2155L480.234 35.4033L471.352 35.4033ZM471.198 13.2265C471.198 11.2707 470.552 9.77901 469.259 8.75138C467.965 7.69061 466.077 7.16022 463.592 7.16022L456.854 7.16022V19.2928H463.592C466.077 19.2928 467.965 18.7624 469.259 17.7017C470.552 16.6409 471.198 15.1492 471.198 13.2265Z" fill="black"/>
<path d="M504.449 36C500.739 36 497.387 35.221 494.392 33.663C491.431 32.105 489.1 29.9669 487.399 27.2486C485.731 24.4972 484.897 21.4144 484.897 18C484.897 14.5856 485.731 11.5193 487.399 8.8011C489.1 6.04972 491.431 3.89503 494.392 2.33702C497.387 0.779006 500.739 0 504.449 0C508.158 0 511.493 0.779006 514.454 2.33702C517.415 3.89503 519.746 6.04972 521.448 8.8011C523.149 11.5193 524 14.5856 524 18C524 21.4144 523.149 24.4972 521.448 27.2486C519.746 29.9669 517.415 32.105 514.454 33.663C511.493 35.221 508.158 36 504.449 36ZM504.449 29.1381C506.559 29.1381 508.465 28.674 510.166 27.7459C511.868 26.7845 513.195 25.4586 514.148 23.768C515.135 22.0773 515.628 20.1547 515.628 18C515.628 15.8453 515.135 13.9227 514.148 12.232C513.195 10.5414 511.868 9.23204 510.166 8.30387C508.465 7.34254 506.559 6.86188 504.449 6.86188C502.339 6.86188 500.433 7.34254 498.731 8.30387C497.03 9.23204 495.685 10.5414 494.699 12.232C493.746 13.9227 493.269 15.8453 493.269 18C493.269 20.1547 493.746 22.0773 494.699 23.768C495.685 25.4586 497.03 26.7845 498.731 27.7459C500.433 28.674 502.339 29.1381 504.449 29.1381Z" fill="black"/>
<circle cx="398" cy="32" r="4" fill="white"/>
</svg>
