<svg xmlns="http://www.w3.org/2000/svg" aria-hidden="true" focusable="false" data-prefix="fas" data-icon="star" role="img" width="515.814208984375" height="100"><rect id="backgroundrect" width="282.1822204589844" height="54.64480972290039" x="0" y="0" fill="none" stroke="none" class="" style=""/>
    
    
    
    
    
<g class="currentLayer" style=""><title>Layer 1</title><path fill="#000000" d="M149.3840402469212,3.931088389803631 L136.77652869190163,29.493638617745297 L108.56891095547957,33.6060428462586 c-5.058450271692388,0.7336683600164535 -7.0856917927904846,6.969849420156307 -3.4173499927082167,10.541655909710093 l20.407564645720818,19.886273968867023 l-4.826765526424035,28.091775363787885 c-0.8688177947563265,5.077757333798085 4.479238408521504,8.881248568620224 8.958476817043008,6.5064799296196 L154.925167071256,85.36827635162994 l25.23433017214485,13.263951666613249 c4.479238408521504,2.3554615768949287 9.827294611799335,-1.4287225958215144 8.958476817043008,-6.5064799296196 l-4.826765526424035,-28.091775363787885 l20.407564645720818,-19.886273968867023 c3.6683418000822665,-3.571806489553786 1.6411002789841742,-9.807987549693639 -3.4173499927082167,-10.541655909710093 L173.07380545061037,29.493638617745297 L160.46629389559078,3.931088389803631 c-2.2589262663664487,-4.5564666569442895 -8.80402032019744,-4.614387843261377 -11.082253648669585,0 z" id="svg_3" class="" fill-opacity="1" stroke-width="42"/><path fill="#000000" d="M45.5589052543217,3.931091906477672 L32.951393699302145,29.49364213441934 L4.743775962880079,33.606046362932645 c-5.058450271692388,0.7336683600164535 -7.0856917927904846,6.969849420156307 -3.4173499927082167,10.541655909710093 l20.407564645720818,19.886273968867023 l-4.826765526424035,28.091775363787885 c-0.8688177947563265,5.077757333798085 4.479238408521504,8.881248568620224 8.958476817043008,6.5064799296196 L51.10003207865651,85.36827986830399 l25.23433017214485,13.263951666613249 c4.479238408521504,2.3554615768949287 9.827294611799335,-1.4287225958215144 8.958476817043008,-6.5064799296196 l-4.826765526424035,-28.091775363787885 l20.407564645720818,-19.886273968867023 c3.6683418000822665,-3.571806489553786 1.6411002789841735,-9.807987549693639 -3.4173499927082167,-10.541655909710093 L69.24867045801088,29.49364213441934 L56.64115890299129,3.931091906477672 c-2.2589262663664487,-4.5564666569442895 -8.80402032019744,-4.614387843261377 -11.082253648669585,0 z" class="" fill-opacity="1" stroke-width="42" id="svg_1"/><path fill="#000000" d="M252.66272510142863,3.9310925025241197 L240.05521354640908,29.493642730465787 L211.847595809987,33.60604695897909 c-5.058450271692388,0.7336683600164535 -7.0856917927904846,6.969849420156307 -3.4173499927082167,10.541655909710093 l20.407564645720818,19.886273968867023 l-4.826765526424035,28.091775363787885 c-0.8688177947563265,5.077757333798085 4.479238408521504,8.881248568620224 8.958476817043008,6.5064799296196 L258.20385192576344,85.36828046435043 l25.23433017214485,13.263951666613249 c4.479238408521504,2.3554615768949287 9.827294611799335,-1.4287225958215144 8.958476817043008,-6.5064799296196 l-4.826765526424035,-28.091775363787885 l20.407564645720818,-19.886273968867023 c3.6683418000822665,-3.571806489553786 1.641100278984174,-9.807987549693639 -3.4173499927082167,-10.541655909710093 L276.35249030511784,29.493642730465787 L263.7449787500982,3.9310925025241197 c-2.2589262663664487,-4.5564666569442895 -8.80402032019744,-4.614387843261377 -11.082253648669585,0 z" class="" fill-opacity="1" stroke-width="42" id="svg_2"/><path fill="#000000" d="M355.94141734691203,3.931092025686965 L343.33390579189245,29.49364225362863 L315.1262880554704,33.606046482141934 c-5.058450271692388,0.7336683600164535 -7.0856917927904846,6.969849420156307 -3.4173499927082167,10.541655909710093 l20.407564645720818,19.886273968867023 l-4.826765526424035,28.091775363787885 c-0.8688177947563265,5.077757333798085 4.479238408521504,8.881248568620224 8.958476817043008,6.5064799296196 L361.48254417124684,85.36827998751328 l25.23433017214485,13.263951666613249 c4.479238408521504,2.3554615768949287 9.827294611799335,-1.4287225958215144 8.958476817043008,-6.5064799296196 l-4.826765526424035,-28.091775363787885 l20.407564645720818,-19.886273968867023 c3.6683418000822665,-3.571806489553786 1.6411002789841742,-9.807987549693639 -3.4173499927082167,-10.541655909710093 L379.63118255060124,29.49364225362863 L367.0236709955816,3.931092025686965 c-2.2589262663664487,-4.5564666569442895 -8.80402032019744,-4.614387843261377 -11.082253648669585,0 z" class="" fill-opacity="1" stroke-width="42" id="svg_4"/><path fill="#000000" d="M458.1271994218403,3.9310922045008994 L445.51968786682073,29.493642432442556 L417.3120701303987,33.60604666095587 c-5.058450271692388,0.7336683600164535 -7.0856917927904846,6.969849420156307 -3.4173499927082167,10.541655909710093 l20.407564645720818,19.886273968867023 l-4.826765526424035,28.091775363787885 c-0.8688177947563265,5.077757333798085 4.479238408521504,8.881248568620224 8.958476817043008,6.5064799296196 L463.6683262461751,85.36828016632722 l25.23433017214485,13.263951666613249 c4.479238408521504,2.3554615768949287 9.827294611799335,-1.4287225958215144 8.958476817043008,-6.5064799296196 l-4.826765526424035,-28.091775363787885 l20.407564645720818,-19.886273968867023 c3.6683418000822665,-3.571806489553786 1.6411002789841749,-9.807987549693639 -3.4173499927082167,-10.541655909710093 L481.8169646255295,29.493642432442556 L469.2094530705099,3.9310922045008994 c-2.2589262663664487,-4.5564666569442895 -8.80402032019744,-4.614387843261377 -11.082253648669585,0 z" class="" fill-opacity="1" stroke-width="42" id="svg_5"/></g></svg>